# xmcd
#
# Track frame offsets:
#	150
#	15865
#	31052
#	45957
#	60587
#	76860
#	88865
#	104512
#	118465
#	131045
#
# Disc length: 1902 seconds
#
# Revision: 4
# Processed by: cddbd v1.5.2PL0 Copyright (c) Steve Scherf et al.
# Submitted via: EasyCDDAExtractor 16.0.1.1
#
DISCID=75076c0a
DTITLE=Dixiana
DYEAR=1992
DGENRE=Country
TTITLE0=I Didn't Think You'd Care
TTITLE1=A Heart That Can't Be Had
TTITLE2=Waitin' For The Deal To Go Down
TTITLE3=Are You Over Her
TTITLE4=It Comes And It Goes
TTITLE5=That's What I'm Working On Tonight
TTITLE6=I Know Where Therre's One
TTITLE7=Chain Of Heartaches
TTITLE8=If I Can't Have You
TTITLE9=A Little In Love
EXTD=Dixiana was a country band formed in 1986 by brothers Mark (bass/vocals) 
EXTD=and Phil Lister (string instruments/vocals), along with keyboardist Randa
EXTD=ll Griffith and drummer Colonel Shuford. The group was scheduled to appea
EXTD=r on Nashville Now when they suddenly lost their original lead singer - fo
EXTD=rtunately, the Listers' childhood friend Cindy Murphy, formerly a member 
EXTD=of the bluegrass Wooden Nickel Band, agreed to be their primary vocalist.
EXTD=The group signed to Epic in 1992 and released their first self-titled al
EXTD=bum, which contained two Top 40 singles, "Waitin' for the Deal to Go Down
EXTD=" and "That's What I'm Working on Tonight." -- Sandra Brennan, All-Music 
EXTD=Guide
EXTT0=
EXTT1=
EXTT2=
EXTT3=
EXTT4=
EXTT5=
EXTT6=
EXTT7=
EXTT8=
EXTT9=
PLAYORDER=
